HIERARCHY
ROOT Hips
{
	OFFSET	0.00	0.00	0.00
	CHANNELS 6 Xposition Yposition Zposition Zrotation Xrotation Yrotation
	JOINT LeftUpLeg
	{
		OFFSET	 0.126116	-0.014019	-0.065224
		CHANNELS 3 Zrotation Xrotation Yrotation
		JOINT LeftLeg
		{
			OFFSET	 0.000000	 0.000000	 0.569914
			CHANNELS 3 Zrotation Xrotation Yrotation
			JOINT LeftFoot
			{
				OFFSET	 0.000000	 0.000000	 0.544423
				CHANNELS 3 Zrotation Xrotation Yrotation
				JOINT LeftToeBase
				{
					OFFSET	 0.000000	 0.000000	 0.207117
					CHANNELS 3 Zrotation Xrotation Yrotation
					End Site
					{
						OFFSET	 0.000000	 0.000000	 0.207117
					}
				}
			}
		}
	}
	JOINT RightUpLeg
	{
		OFFSET	-0.124023	-0.008373	-0.065224
		CHANNELS 3 Zrotation Xrotation Yrotation
		JOINT RightLeg
		{
			OFFSET	 0.000000	 0.000000	 0.570047
			CHANNELS 3 Zrotation Xrotation Yrotation
			JOINT RightFoot
			{
				OFFSET	 0.000000	 0.000000	 0.544354
				CHANNELS 3 Zrotation Xrotation Yrotation
				JOINT RightToeBase
				{
					OFFSET	 0.000000	 0.000000	 0.207540
					CHANNELS 3 Zrotation Xrotation Yrotation
					End Site
					{
						OFFSET	 0.000000	 0.000000	 0.207540
					}
				}
			}
		}
	}
	JOINT Spine
	{
		OFFSET	 0.000184	-0.007763	 0.117403
		CHANNELS 3 Zrotation Xrotation Yrotation
		JOINT Spine1
		{
			OFFSET	 0.000000	 0.000000	 0.137269
			CHANNELS 3 Zrotation Xrotation Yrotation
			JOINT Spine2
			{
				OFFSET	 0.000000	 0.000000	 0.156879
				CHANNELS 3 Zrotation Xrotation Yrotation
				JOINT LeftShoulder
				{
					OFFSET	 0.080501	-0.002496	 0.160144
					CHANNELS 3 Zrotation Xrotation Yrotation
					JOINT LeftArm
					{
						OFFSET	 0.000000	 0.000000	 0.164363
						CHANNELS 3 Zrotation Xrotation Yrotation
						JOINT LeftForeArm
						{
							OFFSET	 0.000000	 0.000000	 0.364576
							CHANNELS 3 Zrotation Xrotation Yrotation
							JOINT LeftHand
							{
								OFFSET	 0.000000	 0.000000	 0.360812
								CHANNELS 3 Zrotation Xrotation Yrotation
								JOINT LeftHandIndex1
								{
									OFFSET	 0.000000	 0.000000	 0.086006
									CHANNELS 3 Zrotation Xrotation Yrotation
									JOINT LeftHandIndex2
									{
										OFFSET	 0.000000	 0.000000	 0.047236
										CHANNELS 3 Zrotation Xrotation Yrotation
										JOINT LeftHandIndex3
										{
											OFFSET	-0.004284	-0.000551	 0.038166
											CHANNELS 3 Zrotation Xrotation Yrotation
											End Site
											{
												OFFSET	-0.004284	-0.000551	 0.038166
											}
										}
									}
								}
							}
						}
					}
				}
				JOINT Neck
				{
					OFFSET	 0.000000	 0.000000	 0.176489
					CHANNELS 3 Zrotation Xrotation Yrotation
					JOINT Head
					{
						OFFSET	 0.000000	-0.001747	 0.077940
						CHANNELS 3 Zrotation Xrotation Yrotation
						End Site
						{
							OFFSET	 0.000000	-0.001747	 0.077940
						}
					}
				}
				JOINT RightShoulder
				{
					OFFSET	-0.080363	 0.000306	 0.159706
					CHANNELS 3 Zrotation Xrotation Yrotation
					JOINT RightArm
					{
						OFFSET	 0.000000	 0.000000	 0.164196
						CHANNELS 3 Zrotation Xrotation Yrotation
						JOINT RightForeArm
						{
							OFFSET	 0.000000	 0.000000	 0.365611
							CHANNELS 3 Zrotation Xrotation Yrotation
							JOINT RightHand
							{
								OFFSET	 0.000000	 0.000000	 0.360648
								CHANNELS 3 Zrotation Xrotation Yrotation
								JOINT RightHandIndex1
								{
									OFFSET	 0.000000	 0.000000	 0.069977
									CHANNELS 3 Zrotation Xrotation Yrotation
									JOINT RightHandIndex2
									{
										OFFSET	 0.000000	 0.000000	 0.052305
										CHANNELS 3 Zrotation Xrotation Yrotation
										JOINT RightHandIndex3
										{
											OFFSET	 0.009002	-0.000782	 0.042196
											CHANNELS 3 Zrotation Xrotation Yrotation
											End Site
											{
												OFFSET	 0.009002	-0.000782	 0.042196
											}
										}
									}
								}
							}
						}
					}
				}
			}
		}
	}
}
MOTION
Frames:    6
Frame Time: 0.03333334
-0.000657	-0.004217	 1.224300	 0.003180	 0.003835	-0.140151	 25.112230	-14.597920	 175.630500	 0.846365	-34.423180	-2.259454	-25.814930	 80.128390	 20.614070	-2.385833	 28.452760	 0.000004	-25.145700	-13.829890	-174.983200	-0.854317	-34.213580	 2.200531	 29.420560	 80.762110	-24.465800	 2.384658	 28.388730	 0.000004	 37.227310	 2.740469	-0.059954	 1.644987	 3.642872	 0.656772	-4.946684	-4.535140	-1.083492	-91.776190	 78.527470	-180.000000	 40.119750	 28.294400	-54.182940	-24.544780	 2.201192	-6.848997	-41.980730	 3.189513	-3.611721	-2.635965	 4.993658	 6.788941	-5.165319	 0.784187	 3.516649	-5.225038	 0.466231	 0.424329	-0.000002	-3.783157	-0.089647	-4.801848	 4.828226	 0.202546	 89.782140	 78.203900	 180.000000	-0.118375	 12.251700	 110.661300	-17.926530	 1.896803	 6.984659	 17.053260	 0.285120	-6.353485	 6.112037	 4.509576	-0.364401	 4.968462	 1.518543	-9.347576	 5.168945	 0.703820	 2.021906
-0.000661	-0.005104	 1.224567	 0.003176	 0.003833	-0.140149	 25.115560	-14.540550	 175.623800	 0.851046	-34.325450	-2.251185	-25.716770	 80.091960	 20.514920	-2.385833	 28.452760	 0.000004	-25.148320	-13.729240	-174.960600	-0.859917	-34.092700	 2.190557	 29.435710	 80.737590	-24.484300	 2.384658	 28.388730	 0.000004	 37.793770	 2.740476	-0.059957	 1.644986	 3.642857	 0.656802	-4.946678	-4.535134	-1.083508	-91.776140	 78.527470	 179.999900	 40.136670	 28.317350	-54.222360	-22.547060	 1.751836	-6.116014	-42.185120	 3.171136	-3.607527	-2.635965	 4.993658	 6.788941	-5.165319	 0.784187	 3.516649	-5.225038	 0.466231	 0.424329	-0.000002	-3.783157	-0.089647	-4.801853	 4.828221	 0.202546	 89.782100	 78.203890	 180.000000	-0.162068	 12.309800	 110.669200	-19.980060	 1.440939	 6.238860	 17.255200	 0.184655	-6.359844	 6.112037	 4.509576	-0.364401	 4.968462	 1.518543	-9.347576	 5.168945	 0.703820	 2.021906
-0.000655	-0.005982	 1.224787	 0.003175	 0.003835	-0.140147	 25.118240	-14.490980	 175.617600	 0.854938	-34.243540	-2.244280	-25.642150	 80.062480	 20.439730	-2.385833	 28.452760	 0.000004	-25.150280	-13.637040	-174.938600	-0.864748	-33.987820	 2.181924	 29.475100	 80.719370	-24.527360	 2.384658	 28.388730	 0.000004	 37.974380	 2.740472	-0.059959	 1.644989	 3.642855	 0.656792	-4.946685	-4.535137	-1.083500	-91.776240	 78.527430	-180.000000	 40.165620	 28.345410	-54.283760	-20.535880	 1.353873	-5.356122	-42.379280	 3.149603	-3.605078	-2.635965	 4.993658	 6.788941	-5.165319	 0.784187	 3.516649	-5.225038	 0.466231	 0.424329	-0.000002	-3.783157	-0.089647	-4.801848	 4.828226	 0.202546	 89.782070	 78.203900	-180.000000	-0.208374	 12.375910	 110.662900	-22.050950	 1.038855	 5.468396	 17.450350	 0.073597	-6.364994	 6.112037	 4.509576	-0.364401	 4.968462	 1.518543	-9.347576	 5.168945	 0.703820	 2.021906
-0.000637	-0.006847	 1.224927	 0.003176	 0.003833	-0.140145	 25.119720	-14.455040	 175.611800	 0.857486	-34.189490	-2.239730	-25.608470	 80.045310	 20.406170	-2.385833	 28.452760	 0.000004	-25.150970	-13.559540	-174.917600	-0.868254	-33.911300	 2.175639	 29.559280	 80.712630	-24.615790	 2.384658	 28.388730	 0.000004	 37.796440	 2.740465	-0.059960	 1.644989	 3.642874	 0.656789	-4.946681	-4.535140	-1.083501	-91.776180	 78.527430	 180.000000	 40.201000	 28.385700	-54.363470	-18.533300	 1.014046	-4.582652	-42.562480	 3.125140	-3.604175	-2.635965	 4.993658	 6.788941	-5.165319	 0.784187	 3.516649	-5.225038	 0.466231	 0.424329	-0.000002	-3.783157	-0.089647	-4.801826	 4.828205	 0.202544	 89.782150	 78.203870	 180.000000	-0.152132	 12.473710	 110.661100	-24.111740	 0.695645	 4.685963	 17.633510	-0.035830	-6.368668	 6.112037	 4.509576	-0.364401	 4.968462	 1.518543	-9.347576	 5.168945	 0.703820	 2.021906
-0.000615	-0.007711	 1.225047	 0.003175	 0.003835	-0.140160	 25.120950	-14.422510	 175.606300	 0.859704	-34.142440	-2.235775	-25.585080	 80.031210	 20.383120	-2.385833	 28.452760	 0.000004	-25.151370	-13.485520	-174.896700	-0.871444	-33.841580	 2.169923	 29.654360	 80.708640	-24.715270	 2.384658	 28.388730	 0.000004	 37.276440	 2.740479	-0.059943	 1.644988	 3.642853	 0.656789	-4.946689	-4.535131	-1.083509	-91.776160	 78.527470	 180.000000	 40.244060	 28.434810	-54.459350	-16.500300	 0.728708	-3.785830	-42.739780	 3.097586	-3.604824	-2.635965	 4.993658	 6.788941	-5.165319	 0.784187	 3.516649	-5.225038	 0.466231	 0.424329	-0.000002	-3.783157	-0.089647	-4.801828	 4.828204	 0.202544	 89.782100	 78.203890	 180.000000	-0.185102	 12.573170	 110.640300	-26.208060	 0.405847	 3.875819	 17.818820	-0.129646	-6.372779	 6.112037	 4.509576	-0.364401	 4.968462	 1.518543	-9.347576	 5.168945	 0.703820	 2.021906
-0.000596	-0.008633	 1.225225	 0.003183	 0.003839	-0.140156	 25.122980	-14.379340	 175.600000	 0.862897	-34.074730	-2.230085	-25.534500	 80.008320	 20.332410	-2.385833	 28.452760	 0.000004	-25.152710	-13.397620	-174.874100	-0.875648	-33.749120	 2.162358	 29.724760	 80.696780	-24.789870	 2.384658	 28.388730	 0.000004	 36.340990	 2.740474	-0.059948	 1.644984	 3.642857	 0.656784	-4.946690	-4.535136	-1.083504	-91.776250	 78.527430	-180.000000	 40.297530	 28.496640	-54.579730	-14.275330	 0.482682	-2.899161	-42.924660	 3.064339	-3.607141	-2.635965	 4.993658	 6.788941	-5.165319	 0.784187	 3.516649	-5.225038	 0.466231	 0.424329	-0.000002	-3.783157	-0.089647	-4.801826	 4.828205	 0.202544	 89.782150	 78.203900	 180.000000	-0.518850	 12.582960	 110.560600	-28.502650	 0.156495	 2.977410	 18.012620	-0.229918	-6.376106	 6.112037	 4.509576	-0.364401	 4.968462	 1.518543	-9.347576	 5.168945	 0.703820	 2.021906
